<?xml version="1.0" encoding="utf-8"?>
<!-- Generator: Adobe Illustrator 16.0.0, SVG Export Plug-In . SVG Version: 6.00 Build 0)  -->
<!DOCTYPE svg PUBLIC "-//W3C//DTD SVG 1.1//EN" "http://www.w3.org/Graphics/SVG/1.1/DTD/svg11.dtd">
<svg version="1.1" id="Layer_1" xmlns="http://www.w3.org/2000/svg" xmlns:xlink="http://www.w3.org/1999/xlink" x="0px" y="0px"
	 width="823px" height="780px" viewBox="0 0 823 780" enable-background="new 0 0 823 780" xml:space="preserve">
<g>
	<path fill="none" stroke="#000000" stroke-width="8.5039" stroke-miterlimit="10" d="M212.525,754.53
		c0,0,91.301,12.586,199.951,12.586c108.646,0,199.949-12.586,199.949-12.586l0.004-0.004c0,0,55.979-77.16,110.303-176.473
		s89.646-189.062,89.646-189.062s-35.322-89.75-89.645-189.062C668.41,100.618,612.432,23.455,612.432,23.455l-0.006-0.005
		c0,0-91.303-12.588-199.951-12.588S212.525,23.45,212.525,23.45l-0.033,0.996c0,0-55.973,77.168-110.289,176.484
		S12.572,389.999,12.572,389.999l-0.193,1.648c0,0,36.033,89.436,91.143,188.264c55.107,98.828,111.697,175.492,111.697,175.492"/>
</g>
</svg>
